<?xml version="1.0" encoding="utf-8"?>
<!-- Generator: Adobe Illustrator 21.0.0, SVG Export Plug-In . SVG Version: 6.00 Build 0)  -->
<svg version="1.1" id="Camada_1" xmlns="http://www.w3.org/2000/svg" xmlns:xlink="http://www.w3.org/1999/xlink" x="0px" y="0px"
	 viewBox="0 0 700 700" style="enable-background:new 0 0 700 700;" xml:space="preserve">
<g>
	<path d="M157.2,276.5c30.5,0,59.8-12.1,81.5-33.7c21.6-21.6,33.8-50.9,33.8-81.4c0-30.5-12.1-59.8-33.7-81.4
		c-21.6-21.6-50.9-33.8-81.4-33.8c-30.5,0-59.8,12.1-81.4,33.7c-21.6,21.6-33.7,50.9-33.7,81.4c0,30.5,12.2,59.8,33.7,81.4
		C97.5,264.3,126.7,276.5,157.2,276.5L157.2,276.5z M157.2,63.2L157.2,63.2c26.1,0,51.1,10.3,69.5,28.8
		c18.4,18.4,28.8,43.4,28.8,69.5c0,26.1-10.3,51.1-28.8,69.5c-18.4,18.4-43.4,28.8-69.5,28.8c-26.1,0-51.1-10.4-69.5-28.8
		c-18.4-18.4-28.8-43.5-28.7-69.5c0-26,10.4-51,28.8-69.4C106.3,73.6,131.2,63.2,157.2,63.2L157.2,63.2z"/>
	<path d="M148.8,235.6v7.2c0,4.7,3.8,8.4,8.4,8.4c4.7,0,8.4-3.8,8.4-8.4v-7.2c12.4-2.9,22.8-11.3,28.3-22.8
		c5.5-11.5,5.5-24.9,0-36.4c-5.5-11.5-15.9-19.9-28.3-22.8v-49.3c4.9,1.7,9.1,4.9,12.1,9.1c3,4.2,4.7,9.2,4.8,14.4v6.7
		c0,4.7,3.8,8.4,8.4,8.4c4.7,0,8.4-3.8,8.4-8.4v-6.7c-0.1-9.7-3.5-19-9.6-26.5c-6.1-7.5-14.7-12.6-24.1-14.5v-4.4
		c0-4.7-3.8-8.4-8.4-8.4c-4.7,0-8.4,3.8-8.4,8.4v4.4c-12.4,2.9-22.8,11.3-28.3,22.8c-5.5,11.5-5.5,24.9,0,36.4
		c5.5,11.5,15.9,19.9,28.3,22.8V218c-4.9-1.7-9.1-4.9-12.1-9.1c-3-4.2-4.7-9.2-4.8-14.4v-6.7c0-4.7-3.8-8.4-8.4-8.4
		c-4.7,0-8.4,3.8-8.4,8.4v6.7c0.1,9.7,3.4,19,9.6,26.5C130.8,228.5,139.3,233.7,148.8,235.6L148.8,235.6z M148.8,151.3
		c-6.3-2.5-11.2-7.5-13.8-13.7c-2.6-6.2-2.6-13.3,0-19.5c2.6-6.2,7.6-11.2,13.8-13.7V151.3z M182.5,194.7L182.5,194.7
		c-0.1,5.2-1.7,10.2-4.8,14.4c-3,4.2-7.2,7.4-12.1,9.1v-47.1c4.8,1.8,9,4.9,12,9.1c3,4.2,4.6,9.2,4.7,14.3L182.5,194.7z"/>
	<path d="M692.4,426.8l-39.4-5.9c-4.2-16.2-10.6-31.7-19.1-46.1l24-32c2.5-3.4,2.2-8.1-0.8-11.1l-47.5-47.4c-2.9-3-7.6-3.3-11-0.8
		l-32.1,23.7h0c-14.4-8.4-29.9-14.9-46.1-19.1l-6.1-39.2c-0.6-4.2-4.2-7.2-8.4-7.2h-67.5c-4.2,0-7.8,3-8.4,7.2l-5.9,39.4
		c-8.3,2.2-16.4,5-24.3,8.4v-284c0-2.2-0.9-4.4-2.5-6c-1.6-1.6-3.7-2.5-6-2.5H8.4C3.8,4.1,0,7.9,0,12.6v570.8c0,2.2,0.9,4.4,2.5,6
		c1.6,1.6,3.7,2.5,6,2.5h280.8l-2,2.8h0c-2.5,3.3-2.2,8,0.8,11l47.5,47.4c2.9,3,7.6,3.3,11,0.8l32.1-23.7
		c14.4,8.4,29.9,14.9,46.1,19.1l5.9,39.4c0.6,4.1,4.1,7.1,8.2,7.2h67.5h0c4.2,0,7.8-3,8.4-7.2l5.9-39.4
		c16.1-4.3,31.6-10.7,46.1-19.1l31.8,23.5c3.4,2.5,8,2.1,11-0.8l47.5-47.4c3-2.8,3.5-7.4,1.2-10.8l-23.6-32.1v0
		c8.4-14.4,14.9-30,19.1-46.1l39.4-5.9c4.2-0.6,7.2-4.2,7.2-8.4v-67.5C699.7,430.5,696.5,427.2,692.4,426.8L692.4,426.8z M638,507.1
		L638,507.1c-4.2,18.2-11.4,35.7-21.3,51.5c-1.9,2.9-1.9,6.6,0,9.5l22.7,30.7L602.2,636l-30.7-22.7c-2.9-2-6.7-2-9.5,0
		c-15.9,9.9-33.3,17.2-51.5,21.3c-3.4,0.8-5.9,3.6-6.4,7l-5.3,37.4h-52.6l-5.7-37.8l0,0c-0.5-3.4-3-6.2-6.4-7
		c-18.3-4.2-35.7-11.4-51.5-21.3c-2.9-2-6.7-2-9.5,0L342.2,636l-37.1-37.2l22.7-30.7c1.9-2.9,1.9-6.6,0-9.5
		c-9.9-15.9-17.1-33.3-21.3-51.5c-0.8-3.4-3.5-6-6.9-6.5l-37.8-5.7v-52.1l37.8-5.7c3.4-0.5,6.1-3.1,6.9-6.4
		c4.2-18.3,11.4-35.7,21.3-51.5c2-2.9,2-6.7,0-9.5L305.1,339l37.1-37.2l30.7,22.7c2.9,2,6.7,2,9.5,0c15.9-9.9,33.3-17.1,51.5-21.3
		c3.4-0.8,5.9-3.6,6.4-7l5.7-37.8h52.6l5.7,37.8h0c0.5,3.4,3,6.2,6.4,7c18.3,4.3,35.7,11.6,51.5,21.6c2.9,2,6.7,2,9.5,0l30.7-22.7
		l37.1,37.2L617,369.9c-2,2.9-2,6.7,0,9.5c9.9,15.9,17.2,33.3,21.3,51.5c0.8,3.3,3.5,5.9,6.9,6.4l37.8,5.7v52.6l-37.8,5.7v0
		C641.9,501.6,639,503.9,638,507.1L638,507.1z M16.9,21h366.5v283.4l-4.9,2.7l-32.1-23.7l0,0c-3.4-2.5-8-2.1-11,0.8L288,331.7
		c-0.3,0.4-0.6,0.8-0.8,1.2H81.2c-4.7,0-8.4,3.8-8.4,8.4c0,4.7,3.8,8.4,8.4,8.4h210.9l18.5,25.3h0c-4,7-7.7,14.3-10.8,21.8H80.1
		c-4.7,0-8.4,3.8-8.4,8.4c0,4.7,3.8,8.4,8.4,8.4H294c-0.8,2.4-1.5,4.9-2.2,7.4l-39.4,5.9l0,0c-4.2,0.6-7.2,4.2-7.2,8.4v25.3H79.1
		c-4.7,0-8.4,3.8-8.4,8.4c0,4.7,3.8,8.4,8.4,8.4h166.1V503c0,4.2,3,7.8,7.2,8.4l39.4,5.9c0.7,2.5,1.4,5.1,2.3,7.6h-216
		c-4.7,0-8.4,3.8-8.4,8.4c0,4.7,3.8,8.4,8.4,8.4h221.9c3.1,7.4,6.7,14.7,10.8,21.7l-9.1,12.4l-284.9,0L16.9,21z"/>
	<path d="M472.4,345.5c-32.7,0-64.1,12.9-87.2,36c-23.1,23.1-36.1,54.4-36.1,87.1c0,32.7,13,64.1,36.1,87.2
		c23.1,23.1,54.5,36.1,87.2,36.1c32.7,0,64-13,87.2-36.1c23.1-23.1,36.1-54.5,36.1-87.2c0-32.7-13-64-36.1-87.1
		C536.4,358.5,505.1,345.5,472.4,345.5L472.4,345.5z M472.4,575c-28.2,0-55.3-11.2-75.3-31.1c-20-19.9-31.2-47-31.2-75.2
		c0-28.2,11.2-55.3,31.2-75.2c20-20,47-31.2,75.2-31.2c28.2,0,55.3,11.2,75.2,31.2c19.9,20,31.1,47,31.1,75.3
		c0,28.2-11.3,55.2-31.2,75.1C527.6,563.7,500.6,575,472.4,575z"/>
</g>
</svg>
