<?xml version="1.0" encoding="utf-8"?>
<!-- Generator: Adobe Illustrator 21.0.0, SVG Export Plug-In . SVG Version: 6.00 Build 0)  -->
<svg version="1.1" id="Camada_1" xmlns="http://www.w3.org/2000/svg" xmlns:xlink="http://www.w3.org/1999/xlink" x="0px" y="0px"
	 viewBox="0 0 700 700" style="enable-background:new 0 0 700 700;" xml:space="preserve">
<g>
	<path d="M422,132.9c35.3,14,75.1-3.7,89.1-39c14-35.3-3.7-75.1-39-89.1S397,8.5,383,43.8C369,79.2,386.7,118.9,422,132.9z"/>
	<path d="M179,410.6l53-56.7c6.6-7.4,6.6-18.4-0.7-25.8l-14.7-13.3l13.3-14.7c5.2-5.9,6.6-13.3,3.7-19.9c2.2-1.5,4.4-2.9,6.6-5.2
		l47.9-51.5c5.2-5.2,11-8.8,17.7-11c2.2-0.7,5.2-1.5,7.4-2.2l-39.8,75.1c-7.4,14.7-8.8,32.4-4.4,47.9c5.2,14.7,15.5,27.2,29.5,34.6
		L201.1,552c-9.6,17.7-2.9,39,14.7,48.6c8.1,4.4,16.2,5.2,24.3,2.9c9.6-2.2,18.4-8.1,23.6-17.7l99.4-187.1l39,17.7L397,523.2
		c-0.7,19.9,14,36.1,33.9,36.8c2.9,0,6.6,0,9.6-0.7c15.5-3.7,27.2-16.9,28-33.1l5.2-113.4c1.5-24.3-12.5-47.1-34.6-58.2l-42-19.1
		l37.6-70.7c0.7,2.2,2.2,5.2,2.9,7.4c6.6,19.1,21.4,35.3,40.5,43.4l57.4,25c6.6,2.9,13.3,2.9,19.1,2.2c9.6-2.2,17.7-8.1,21.4-17.7
		c6.6-15.5,0-33.9-16.2-41.2l-58.2-25c-3.7-1.5-5.9-4.4-6.6-7.4c-25-70.7-35.3-89.1-46.4-95.7l-35.3,43.4l3.7-34.6h0.7
		c2.9,0.7,5.9-0.7,6.6-3.7l2.9-8.1c0.7-2.9-0.7-5.9-3.7-6.6l-11-3.7c-2.9-0.7-5.9,0.7-6.6,3.7l-2.9,8.1c-0.7,2.9,0.7,5.9,3.7,6.6
		h0.7l-18.4,30.2l-2.2-56.7c-9.6-1.5-29.5,0.7-97.2,19.1c-17.7,5.2-33.9,14.7-47.1,28.7l-47.9,51.5c-2.2,2.2-4.4,5.2-5.2,8.1
		c-0.7,0-1.5-0.7-2.9-0.7c-5.2,0-10.3,2.2-14,6.6l-13.3,14.7l-14.7-13.3c-7.4-6.6-18.4-6.6-25.8,0.7l-53,56.7
		c-6.6,7.4-6.6,18.4,0.7,25.8l86.2,79.5C161.3,418.7,172.4,417.9,179,410.6L179,410.6z M187.8,261.1c1.5,5.9,4.4,11,8.8,15.5
		c4.4,4.4,10.3,7.4,16.9,8.1l2.2,2.2l-13.3,14.7l-28-25.8L187.8,261.1z"/>
	<path d="M608.4,549L128.2,655.8c-25.8,5.9-22.1,44.2,5.2,44.2h480.9c14,0,25-11,25-25V573.3C639.3,557.1,623.8,545.3,608.4,549
		L608.4,549z"/>
</g>
</svg>
