<?xml version="1.0" encoding="UTF-8"?>
<svg width="700pt" height="700pt" version="1.1" viewBox="0 0 700 700" xmlns="http://www.w3.org/2000/svg" xmlns:xlink="http://www.w3.org/1999/xlink">
 <defs>
  <symbol id="v" overflow="visible">
   <path d="m14.891-0.89062c-0.77344 0.39844-1.5742 0.69531-2.4062 0.89062-0.83594 0.20703-1.6992 0.3125-2.5938 0.3125-2.6992 0-4.8398-0.75-6.4219-2.25-1.5742-1.5078-2.3594-3.5547-2.3594-6.1406 0-2.5938 0.78516-4.6406 2.3594-6.1406 1.582-1.5078 3.7227-2.2656 6.4219-2.2656 0.89453 0 1.7578 0.10156 2.5938 0.29688 0.83203 0.19922 1.6328 0.5 2.4062 0.90625v3.3438c-0.78125-0.51953-1.5469-0.90625-2.2969-1.1562s-1.543-0.375-2.375-0.375c-1.4922 0-2.6641 0.48047-3.5156 1.4375-0.85547 0.96094-1.2812 2.2773-1.2812 3.9531 0 1.668 0.42578 2.9805 1.2812 3.9375 0.85156 0.94922 2.0234 1.4219 3.5156 1.4219 0.83203 0 1.625-0.11719 2.375-0.35938 0.75-0.25 1.5156-0.63281 2.2969-1.1562z"/>
  </symbol>
  <symbol id="d" overflow="visible">
   <path d="m10.891-8.8438c-0.34375-0.15625-0.68359-0.26953-1.0156-0.34375-0.33594-0.082031-0.67188-0.125-1.0156-0.125-1 0-1.7734 0.32422-2.3125 0.96875-0.53125 0.63672-0.79688 1.5547-0.79688 2.75v5.5938h-3.8906v-12.156h3.8906v2c0.5-0.78906 1.0703-1.3672 1.7188-1.7344 0.64453-0.36328 1.4219-0.54688 2.3281-0.54688 0.125 0 0.26562 0.007812 0.42188 0.015625 0.15625 0.011719 0.375 0.03125 0.65625 0.0625z"/>
  </symbol>
  <symbol id="b" overflow="visible">
   <path d="m14-6.1094v1.1094h-9.0781c0.09375 0.90625 0.42188 1.5898 0.98438 2.0469 0.5625 0.46094 1.3477 0.6875 2.3594 0.6875 0.82031 0 1.6602-0.11719 2.5156-0.35938 0.85156-0.25 1.7344-0.61719 2.6406-1.1094v3c-0.91797 0.34375-1.8398 0.60547-2.7656 0.78125-0.91797 0.17578-1.8359 0.26562-2.75 0.26562-2.1992 0-3.9062-0.55469-5.125-1.6719-1.2188-1.1133-1.8281-2.6797-1.8281-4.7031 0-1.9766 0.59766-3.5352 1.7969-4.6719 1.1953-1.1328 2.8438-1.7031 4.9375-1.7031 1.9141 0 3.4453 0.57422 4.5938 1.7188 1.1445 1.1484 1.7188 2.6836 1.7188 4.6094zm-4-1.2969c0-0.72656-0.21484-1.3164-0.64062-1.7656-0.42969-0.45703-0.99219-0.6875-1.6875-0.6875-0.75 0-1.3672 0.21484-1.8438 0.64062-0.46875 0.41797-0.76172 1.0234-0.875 1.8125z"/>
  </symbol>
  <symbol id="l" overflow="visible">
   <path d="m7.3125-5.4688c-0.8125 0-1.4219 0.14062-1.8281 0.42188-0.40625 0.27344-0.60938 0.67188-0.60938 1.2031 0 0.49219 0.16016 0.875 0.48438 1.1562 0.33203 0.28125 0.78906 0.42188 1.375 0.42188 0.72656 0 1.3438-0.25781 1.8438-0.78125 0.5-0.53125 0.75-1.1875 0.75-1.9688v-0.45312zm5.9375-1.4688v6.9375h-3.9219v-1.7969c-0.52344 0.74219-1.1094 1.2773-1.7656 1.6094-0.64844 0.33203-1.4336 0.5-2.3594 0.5-1.2617 0-2.2891-0.36328-3.0781-1.0938-0.78125-0.73828-1.1719-1.6914-1.1719-2.8594 0-1.4258 0.48828-2.4727 1.4688-3.1406 0.97656-0.66406 2.5195-1 4.625-1h2.2812v-0.29688c0-0.61328-0.24609-1.0625-0.73438-1.3438-0.48047-0.28906-1.2344-0.4375-2.2656-0.4375-0.82422 0-1.5938 0.085937-2.3125 0.25-0.71875 0.16797-1.3867 0.41797-2 0.75v-2.9688c0.83203-0.19531 1.6641-0.34766 2.5-0.45312 0.84375-0.10156 1.6875-0.15625 2.5312-0.15625 2.1875 0 3.7656 0.43359 4.7344 1.2969 0.97656 0.86719 1.4688 2.2656 1.4688 4.2031z"/>
  </symbol>
  <symbol id="a" overflow="visible">
   <path d="m6.1094-15.594v3.4375h4v2.7812h-4v5.1562c0 0.5625 0.10938 0.94531 0.32812 1.1406 0.22656 0.19922 0.67578 0.29688 1.3438 0.29688h2v2.7812h-3.3438c-1.5312 0-2.6211-0.31641-3.2656-0.95312-0.63672-0.64453-0.95312-1.7344-0.95312-3.2656v-5.1562h-1.9219v-2.7812h1.9219v-3.4375z"/>
  </symbol>
  <symbol id="f" overflow="visible">
   <path d="m10.141-10.375v-6.5h3.8906v16.875h-3.8906v-1.75c-0.54297 0.71094-1.1367 1.2305-1.7812 1.5625-0.63672 0.33203-1.3828 0.5-2.2344 0.5-1.4922 0-2.7188-0.59375-3.6875-1.7812-0.96094-1.1875-1.4375-2.7188-1.4375-4.5938s0.47656-3.4062 1.4375-4.5938c0.96875-1.1875 2.1953-1.7812 3.6875-1.7812 0.84375 0 1.5859 0.16797 2.2344 0.5 0.64453 0.33594 1.2383 0.85547 1.7812 1.5625zm-2.5625 7.875c0.82031 0 1.4531-0.30078 1.8906-0.90625 0.44531-0.61328 0.67188-1.5 0.67188-2.6562s-0.22656-2.0352-0.67188-2.6406c-0.4375-0.61328-1.0703-0.92188-1.8906-0.92188-0.83594 0-1.4688 0.30859-1.9062 0.92188-0.4375 0.60547-0.65625 1.4844-0.65625 2.6406s0.21875 2.043 0.65625 2.6562c0.4375 0.60547 1.0703 0.90625 1.9062 0.90625z"/>
  </symbol>
  <symbol id="k" overflow="visible">
   <path d="m8.3281-2.5c0.83203 0 1.4688-0.30078 1.9062-0.90625 0.4375-0.61328 0.65625-1.5 0.65625-2.6562s-0.21875-2.0352-0.65625-2.6406c-0.4375-0.61328-1.0742-0.92188-1.9062-0.92188-0.83594 0-1.4766 0.30859-1.9219 0.92188-0.4375 0.60547-0.65625 1.4844-0.65625 2.6406 0 1.1484 0.21875 2.0273 0.65625 2.6406 0.44531 0.61719 1.0859 0.92188 1.9219 0.92188zm-2.5781-7.875c0.53125-0.70703 1.1172-1.2266 1.7656-1.5625 0.65625-0.33203 1.4102-0.5 2.2656-0.5 1.4883 0 2.7109 0.59375 3.6719 1.7812 0.96875 1.1875 1.4531 2.7188 1.4531 4.5938s-0.48438 3.4062-1.4531 4.5938c-0.96094 1.1875-2.1836 1.7812-3.6719 1.7812-0.85547 0-1.6094-0.16797-2.2656-0.5-0.64844-0.33203-1.2344-0.85156-1.7656-1.5625v1.75h-3.8906v-16.875h3.8906z"/>
  </symbol>
  <symbol id="e" overflow="visible">
   <path d="m0.26562-12.156h3.8906l3.2656 8.25 2.7812-8.25h3.875l-5.1094 13.312c-0.51172 1.3438-1.1094 2.2852-1.7969 2.8281-0.67969 0.53906-1.5781 0.8125-2.7031 0.8125h-2.25v-2.5469h1.2188c0.65625 0 1.1328-0.10938 1.4375-0.32812 0.30078-0.21094 0.53516-0.58594 0.70312-1.125l0.10938-0.32812z"/>
  </symbol>
  <symbol id="j" overflow="visible">
   <path d="m11.875-2.9531h-6.5312l-1.0312 2.9531h-4.2031l6-16.203h4.9844l6 16.203h-4.2031zm-5.5-3h4.4375l-2.2031-6.4531z"/>
  </symbol>
  <symbol id="i" overflow="visible">
   <path d="m13.125-10.141c0.48828-0.75 1.0703-1.3164 1.75-1.7031 0.67578-0.39453 1.4219-0.59375 2.2344-0.59375 1.3945 0 2.457 0.43359 3.1875 1.2969 0.72656 0.85547 1.0938 2.1016 1.0938 3.7344v7.4062h-3.9062v-6.3281c0.007813-0.10156 0.015625-0.20312 0.015625-0.29688 0.007812-0.10156 0.015625-0.25 0.015625-0.4375 0-0.86328-0.13281-1.4883-0.39062-1.875-0.25-0.38281-0.65625-0.57812-1.2188-0.57812-0.74219 0-1.3125 0.30859-1.7188 0.92188-0.39844 0.60547-0.60156 1.4805-0.60938 2.625v5.9688h-3.9062v-6.3281c0-1.3516-0.12109-2.2227-0.35938-2.6094-0.23047-0.38281-0.64062-0.57812-1.2344-0.57812-0.74219 0-1.3125 0.30859-1.7188 0.92188-0.40625 0.60547-0.60938 1.4766-0.60938 2.6094v5.9844h-3.9062v-12.156h3.9062v1.7812c0.47656-0.6875 1.0234-1.2031 1.6406-1.5469 0.625-0.34375 1.3047-0.51562 2.0469-0.51562 0.84375 0 1.582 0.20312 2.2188 0.60938 0.64453 0.39844 1.1328 0.96094 1.4688 1.6875z"/>
  </symbol>
  <symbol id="h" overflow="visible">
   <path d="m14.078-7.4062v7.4062h-3.9062v-5.6406c0-1.0625-0.027344-1.7891-0.078125-2.1875-0.042969-0.39453-0.12109-0.69141-0.23438-0.89062-0.14844-0.25-0.35156-0.44141-0.60938-0.57812-0.26172-0.14453-0.55859-0.21875-0.89062-0.21875-0.8125 0-1.4531 0.3125-1.9219 0.9375-0.46094 0.625-0.6875 1.4922-0.6875 2.5938v5.9844h-3.8906v-16.875h3.8906v6.5c0.58203-0.70703 1.2031-1.2266 1.8594-1.5625 0.66406-0.33203 1.3945-0.5 2.1875-0.5 1.4062 0 2.4688 0.43359 3.1875 1.2969 0.72656 0.85547 1.0938 2.1016 1.0938 3.7344z"/>
  </symbol>
  <symbol id="u" overflow="visible">
   <path d="m11.359-11.766v2.9531c-0.83594-0.35156-1.6367-0.61328-2.4062-0.78125-0.77344-0.17578-1.5-0.26562-2.1875-0.26562-0.74219 0-1.293 0.09375-1.6562 0.28125-0.35547 0.17969-0.53125 0.46094-0.53125 0.84375 0 0.3125 0.13281 0.55469 0.40625 0.71875 0.26953 0.16797 0.75391 0.28906 1.4531 0.35938l0.6875 0.10938c1.9883 0.25 3.3281 0.66797 4.0156 1.25 0.6875 0.57422 1.0312 1.4805 1.0312 2.7188 0 1.293-0.48047 2.2656-1.4375 2.9219-0.94922 0.64844-2.3711 0.96875-4.2656 0.96875-0.80469 0-1.6367-0.0625-2.5-0.1875-0.85547-0.125-1.7344-0.3125-2.6406-0.5625v-2.9531c0.78125 0.375 1.5781 0.65625 2.3906 0.84375s1.6328 0.28125 2.4688 0.28125c0.75781 0 1.332-0.10156 1.7188-0.3125 0.38281-0.20703 0.57812-0.51953 0.57812-0.9375 0-0.34375-0.13672-0.59766-0.40625-0.76562-0.26172-0.17578-0.78125-0.3125-1.5625-0.40625l-0.6875-0.09375c-1.7305-0.20703-2.9453-0.60156-3.6406-1.1875-0.6875-0.59375-1.0312-1.4844-1.0312-2.6719 0-1.2891 0.4375-2.2422 1.3125-2.8594 0.88281-0.625 2.2383-0.9375 4.0625-0.9375 0.71875 0 1.4688 0.054688 2.25 0.15625 0.78906 0.10547 1.6484 0.27734 2.5781 0.51562z"/>
  </symbol>
  <symbol id="t" overflow="visible">
   <path d="m13.312-15.688v3.4219c-0.88672-0.39453-1.7578-0.69141-2.6094-0.89062-0.84375-0.20703-1.6406-0.3125-2.3906-0.3125-1 0-1.7422 0.14062-2.2188 0.42188-0.48047 0.27344-0.71875 0.69922-0.71875 1.2812 0 0.42969 0.16016 0.76562 0.48438 1.0156 0.32031 0.24219 0.90625 0.44531 1.75 0.60938l1.7812 0.35938c1.8008 0.36719 3.082 0.91797 3.8438 1.6562 0.75781 0.74219 1.1406 1.7891 1.1406 3.1406 0 1.793-0.53125 3.125-1.5938 4-1.0547 0.86719-2.668 1.2969-4.8438 1.2969-1.0312 0-2.0703-0.10156-3.1094-0.29688-1.0312-0.1875-2.0625-0.47266-3.0938-0.85938v-3.5312c1.0312 0.55469 2.0312 0.96875 3 1.25 0.96875 0.27344 1.8984 0.40625 2.7969 0.40625 0.90625 0 1.5977-0.14844 2.0781-0.45312 0.48828-0.30078 0.73438-0.73438 0.73438-1.2969 0-0.50781-0.16797-0.89844-0.5-1.1719-0.32422-0.26953-0.97656-0.51562-1.9531-0.73438l-1.625-0.35938c-1.6172-0.35156-2.7969-0.90625-3.5469-1.6562-0.75-0.75781-1.125-1.7852-1.125-3.0781 0-1.6133 0.51953-2.8516 1.5625-3.7188 1.0391-0.86328 2.5391-1.2969 4.5-1.2969 0.88281 0 1.7969 0.070313 2.7344 0.20312 0.9375 0.125 1.9102 0.32422 2.9219 0.59375z"/>
  </symbol>
  <symbol id="g" overflow="visible">
   <path d="m1.7344-4.7344v-7.4219h3.9062v1.2188c0 0.65625-0.007813 1.4844-0.015625 2.4844v1.9844c0 0.98047 0.019531 1.6875 0.0625 2.125 0.050781 0.42969 0.14062 0.73438 0.26562 0.92188 0.15625 0.26172 0.36328 0.46094 0.625 0.59375 0.25781 0.13672 0.55469 0.20312 0.89062 0.20312 0.80078 0 1.4297-0.30469 1.8906-0.92188 0.46875-0.625 0.70312-1.4922 0.70312-2.6094v-6h3.8906v12.156h-3.8906v-1.75c-0.58594 0.71094-1.2031 1.2305-1.8594 1.5625s-1.375 0.5-2.1562 0.5c-1.4062 0-2.4805-0.42578-3.2188-1.2812-0.73047-0.86328-1.0938-2.1172-1.0938-3.7656z"/>
  </symbol>
  <symbol id="s" overflow="visible">
   <path d="m1.8594-12.156h3.8906v12.156h-3.8906zm0-4.7188h3.8906v3.1562h-3.8906z"/>
  </symbol>
  <symbol id="c" overflow="visible">
   <path d="m7.6562-9.6719c-0.86719 0-1.5273 0.3125-1.9844 0.9375-0.44922 0.61719-0.67188 1.5078-0.67188 2.6719 0 1.168 0.22266 2.0586 0.67188 2.6719 0.45703 0.61719 1.1172 0.92188 1.9844 0.92188 0.84375 0 1.4883-0.30469 1.9375-0.92188 0.44531-0.61328 0.67188-1.5039 0.67188-2.6719 0-1.1641-0.22656-2.0547-0.67188-2.6719-0.44922-0.625-1.0938-0.9375-1.9375-0.9375zm0-2.7656c2.082 0 3.7109 0.5625 4.8906 1.6875 1.1758 1.125 1.7656 2.6875 1.7656 4.6875s-0.58984 3.5625-1.7656 4.6875c-1.1797 1.125-2.8086 1.6875-4.8906 1.6875-2.1055 0-3.75-0.5625-4.9375-1.6875-1.1797-1.125-1.7656-2.6875-1.7656-4.6875s0.58594-3.5625 1.7656-4.6875c1.1875-1.125 2.832-1.6875 4.9375-1.6875z"/>
  </symbol>
  <symbol id="r" overflow="visible">
   <path d="m9.8594-16.875v2.5469h-2.1406c-0.55469 0-0.9375 0.10156-1.1562 0.29688-0.21875 0.19922-0.32812 0.54297-0.32812 1.0312v0.84375h3.3281v2.7812h-3.3281v9.375h-3.875v-9.375h-1.9375v-2.7812h1.9375v-0.84375c0-1.3203 0.36328-2.2969 1.0938-2.9219 0.73828-0.63281 1.8828-0.95312 3.4375-0.95312z"/>
  </symbol>
  <symbol id="q" overflow="visible">
   <path d="m2.0469-16.203h4.6562l5.8906 11.109v-11.109h3.9688v16.203h-4.6719l-5.8906-11.109v11.109h-3.9531z"/>
  </symbol>
  <symbol id="p" overflow="visible">
   <path d="m14.078-7.4062v7.4062h-3.9062v-5.6562c0-1.0508-0.027344-1.7734-0.078125-2.1719-0.042969-0.39453-0.12109-0.69141-0.23438-0.89062-0.14844-0.25-0.35156-0.44141-0.60938-0.57812-0.26172-0.14453-0.55859-0.21875-0.89062-0.21875-0.8125 0-1.4531 0.3125-1.9219 0.9375-0.46094 0.625-0.6875 1.4922-0.6875 2.5938v5.9844h-3.8906v-12.156h3.8906v1.7812c0.58203-0.70703 1.2031-1.2266 1.8594-1.5625 0.66406-0.33203 1.3945-0.5 2.1875-0.5 1.4062 0 2.4688 0.43359 3.1875 1.2969 0.72656 0.85547 1.0938 2.1016 1.0938 3.7344z"/>
  </symbol>
  <symbol id="o" overflow="visible">
   <path d="m2.0469-16.203h6.9219c2.0625 0 3.6445 0.46094 4.75 1.375 1.1016 0.91797 1.6562 2.2188 1.6562 3.9062 0 1.7109-0.55469 3.0234-1.6562 3.9375-1.1055 0.90625-2.6875 1.3594-4.75 1.3594h-2.75v5.625h-4.1719zm4.1719 3.0312v4.5312h2.3125c0.8125 0 1.4375-0.19531 1.875-0.59375 0.4375-0.39453 0.65625-0.95703 0.65625-1.6875 0-0.71875-0.21875-1.2695-0.65625-1.6562-0.4375-0.39453-1.0625-0.59375-1.875-0.59375z"/>
  </symbol>
  <symbol id="n" overflow="visible">
   <path d="m1.8594-12.156h3.8906v11.938c0 1.625-0.39062 2.8633-1.1719 3.7188-0.78125 0.86328-1.9141 1.2969-3.3906 1.2969h-1.9219v-2.5469h0.67188c0.73828 0 1.2422-0.16797 1.5156-0.5 0.26953-0.33594 0.40625-0.99219 0.40625-1.9688zm0-4.7188h3.8906v3.1562h-3.8906z"/>
  </symbol>
  <symbol id="m" overflow="visible">
   <path d="m11.688-11.766v3.1562c-0.53125-0.35156-1.0625-0.61719-1.5938-0.79688-0.53125-0.17578-1.0859-0.26562-1.6562-0.26562-1.0859 0-1.9297 0.32031-2.5312 0.95312-0.60547 0.63672-0.90625 1.5234-0.90625 2.6562 0 1.1367 0.30078 2.0234 0.90625 2.6562 0.60156 0.625 1.4453 0.9375 2.5312 0.9375 0.61328 0 1.1914-0.085938 1.7344-0.26562 0.53906-0.17578 1.0469-0.44141 1.5156-0.79688v3.1719c-0.61719 0.23047-1.2344 0.39453-1.8594 0.5-0.625 0.11328-1.25 0.17188-1.875 0.17188-2.1875 0-3.9023-0.5625-5.1406-1.6875-1.2422-1.125-1.8594-2.6875-1.8594-4.6875s0.61719-3.5625 1.8594-4.6875c1.2383-1.125 2.9531-1.6875 5.1406-1.6875 0.63281 0 1.2578 0.058594 1.875 0.17188 0.625 0.10547 1.2422 0.27344 1.8594 0.5z"/>
  </symbol>
 </defs>
 <g>
  <path d="m323.42 162.22c-0.74609 0-1.4648 0.097656-2.168 0.25781-0.77344-0.10938-1.5898-0.35547-2.3164-0.90234-0.25-0.17188-0.50391-0.4375-0.76172-0.77734-1.4727-1.9688-4.2578-2.3633-6.2188-0.89062-1.9648 1.4727-2.3633 4.2578-0.89062 6.2188 0.80469 1.0742 1.7148 1.9766 2.625 2.625 0.12109 0.089844 0.23828 0.13281 0.35938 0.21484-0.003906 0.019531-0.007812 0.035156-0.019531 0.054688-0.10547-0.003907-0.19922 0.007812-0.3125 0.003906-1.9023-0.078125-3.6562-0.4375-4.9453-1.0039-2.25-1-4.8711 0.023437-5.8633 2.2617-0.99609 2.2461 0.019532 4.8711 2.2617 5.8633 2.9375 1.3008 6.0781 1.6758 8.1523 1.7617 0.55469 0.027344 1.1094 0.039063 1.668 0.039063 0.10156 0 0.19922-0.011719 0.30078-0.011719 1.8008 2.5586 4.7656 4.2461 8.125 4.2461 5.5117 0 10-4.4453 10-9.957 0.007812-5.5156-4.4844-10.004-9.9961-10.004z"/>
  <path d="m417.91 168.01c-1.3633 0.59375-3.0195 0.94141-5.0664 1.0625-0.070312 0.003906-0.13281-0.003907-0.20312 0-0.007813-0.03125-0.019531-0.0625-0.027344-0.089844 0.09375-0.066406 0.1875-0.097656 0.28125-0.16406 0.99219-0.70703 1.9023-1.6094 2.7031-2.6836 1.4766-1.9609 1.0742-4.7461-0.89062-6.2188-1.9609-1.4727-4.7461-1.0742-6.2188 0.89062-0.25781 0.34375-0.51172 0.60547-0.83594 0.83594-0.67969 0.50781-1.4727 0.73828-2.2305 0.83984-0.70703-0.16016-1.4297-0.26172-2.1797-0.26172-5.5117 0-10 4.4883-10 10 0 5.5117 4.4883 9.957 10 9.957 3.3438 0 6.2695-1.6641 8.0742-4.1875 0.070313 0 0.13672 0.007812 0.21484 0.007812 0.61719 0 1.2305-0.019531 1.8438-0.058594 3.1016-0.18359 5.7461-0.76953 8.0859-1.7812 2.25-0.98047 3.2812-3.6016 2.3008-5.8477s-3.5898-3.2852-5.8516-2.3008z"/>
  <path d="m208.4 425.6c2.3594 0 4.6523-0.60937 6.6133-1.7461l7.6992-4.4258c2.1523-1.1914 4.8789-0.45313 6.1172 1.7031 0.36328 0.63281 0.55078 1.3594 0.55078 2.1602 0 1.6016-0.85938 3.0781-2.2656 3.8789l-7.6797 4.3906c-2.1172 1.2188-4.8398 0.46094-6.0703-1.6875-1.2188-2.1289-3.9336-2.8633-6.0664-1.6406-2.1289 1.2188-2.8672 3.9375-1.6406 6.0664 2.4766 4.3125 6.9922 6.7344 11.625 6.7344 2.2266 0 4.4844-0.5625 6.5469-1.7422l2.2383 3.8711c0.82031 1.4219 2.3164 2.2188 3.8477 2.2188 0.75391 0 1.5195-0.19141 2.2227-0.60156 2.125-1.2266 2.8516-3.9453 1.6172-6.0703l-2.2148-3.832c4.1484-2.3672 6.7227-6.8047 6.7227-11.586 0-2.3633-0.61328-4.6641-1.7461-6.6094-3.6328-6.3438-11.777-8.5781-18.203-4.9766l-7.75 4.4531c-1.8984 1.1016-4.8594 0.39844-6.043-1.7031-0.58594-1.0195-0.73828-2.2148-0.42188-3.3555 0.31641-1.1523 1.0664-2.1172 2.0781-2.6914l3.8633-2.1719c0.0625-0.035156 0.097657-0.097656 0.16016-0.13672l3.6992-2.0977c2.1211-1.2227 4.8398-0.46094 6.0703 1.6875 0.82031 1.4297 2.3164 2.2305 3.8594 2.2305 0.75 0 1.5117-0.19141 2.207-0.58984 2.1289-1.2188 2.8672-3.9375 1.6406-6.0664-3.668-6.3828-11.82-8.625-18.172-4.9883l-2.2383-3.8711c-1.2227-2.1289-3.9375-2.8594-6.0703-1.6172-2.125 1.2266-2.8516 3.9453-1.6172 6.0703l2.2148 3.8281c-3.0859 1.7695-5.3086 4.6367-6.2539 8.0586-0.94922 3.4453-0.49609 7.0508 1.2656 10.125 2.3594 4.1484 6.8047 6.7305 11.594 6.7305z"/>
  <path d="m248.36 401.02c2.3594 0 4.6562-0.60938 6.6055-1.7461l7.6914-4.3984c1.0273-0.59375 2.2227-0.75 3.3789-0.44141 1.1406 0.30859 2.0977 1.043 2.6992 2.0977 0.38672 0.66797 0.60156 1.4414 0.60156 2.1719 0 1.625-0.83594 3.0703-2.2578 3.8789l-7.7305 4.3945c-2.125 1.2188-4.8516 0.48047-6.0625-1.6406-1.2227-2.1289-3.9258-2.8633-6.0664-1.6484-2.1289 1.2188-2.8711 3.9375-1.6484 6.0664 1.7734 3.0938 4.6445 5.3125 8.0742 6.2383 1.1602 0.31641 2.3359 0.46484 3.5117 0.46484 2.293 0 4.5508-0.59375 6.582-1.7617l0.019531-0.007813 2.207 3.8594c0.82031 1.4297 2.3203 2.2344 3.8633 2.2344 0.74609 0 1.5078-0.1875 2.2031-0.58594 2.1289-1.2188 2.8711-3.9375 1.6484-6.0664l-2.1953-3.8359c4.1562-2.3633 6.7383-6.8047 6.7383-11.594 0-2.3086-0.62109-4.5938-1.7812-6.6094-1.7734-3.0938-4.6445-5.3125-8.0781-6.2383-3.4258-0.92578-7.0312-0.46484-10.117 1.3086l-7.7148 4.4141c-1.8984 1.1016-4.8438 0.40625-6.0547-1.7188-0.58594-1.0195-0.73828-2.2031-0.42578-3.3477 0.3125-1.1367 1.0352-2.0742 2.0859-2.6641l7.6992-4.4258c2.1406-1.2031 4.8828-0.45703 6.0938 1.6719 1.2227 2.1289 3.9297 2.8594 6.0664 1.6484 2.1289-1.2188 2.8711-3.9375 1.6484-6.0664-3.6328-6.3438-11.777-8.582-18.199-4.9766l-2.1914-3.8516c-1.2188-2.1367-3.9414-2.8828-6.0586-1.668-2.1328 1.2148-2.8789 3.9297-1.668 6.0586l2.2148 3.8945c-3.0977 1.7422-5.3203 4.5938-6.2578 8.0352-0.94531 3.4531-0.48047 7.0586 1.2891 10.117 2.3555 4.1562 6.8008 6.7383 11.586 6.7383z"/>
  <path d="m383.14 182.75c-2.1523-1.1289-4.8203-0.28125-5.9766 1.8672-0.14062 0.26953-3.6133 6.4883-13.832 6.4883s-13.688-6.2227-13.801-6.4297c-1.1016-2.1953-3.7695-3.0742-5.9648-1.9883-2.1953 1.0977-3.0859 3.7695-1.9883 5.9648 0.23047 0.46484 5.8594 11.344 21.754 11.344 15.898 0 21.523-10.879 21.754-11.348 1.0859-2.168 0.21094-4.7812-1.9453-5.8984z"/>
  <path d="m426.36 128.52c-8.4766-5.6094-19.281-7.0547-28.879-3.8398-2.3242 0.77344-3.5859 3.2891-2.8086 5.6211 0.77734 2.3242 3.2695 3.5938 5.6211 2.8086 7.0312-2.3438 14.945-1.293 21.129 2.8047l1.6445 1.1094c0.76172 0.50781 1.6289 0.75781 2.4805 0.75781 1.4258 0 2.832-0.68359 3.6875-1.957 1.375-2.0312 0.83594-4.7969-1.1992-6.1719z"/>
  <path d="m305.21 135.93c6.2148-4.1094 14.125-5.1641 21.164-2.8281 2.3477 0.78516 4.8438-0.48047 5.6211-2.8086 0.77734-2.3281-0.48047-4.8477-2.8086-5.6211-9.6133-3.2188-20.418-1.7656-28.914 3.8633l-1.6445 1.1094c-2.0352 1.3789-2.5703 4.1406-1.1992 6.1719 0.85938 1.2695 2.2617 1.957 3.6875 1.957 0.85156 0 1.7188-0.25 2.4844-0.76172z"/>
  <path d="m536.91 528.07c-0.039062-0.20703-0.09375-0.41016-0.16016-0.60156-1.0898-5.9648-2.3203-11.812-3.6641-17.367-11.594-49.793-31.637-90.703-59.457-121.8 33.426-68.973 49.707-129.15 49.707-183.86 0-87.766-16.582-204.45-160-204.45s-160 116.68-160 204.45c0 44.746 10.594 92.266 32.32 145.13l-74.504 42.113c-2.1289 1.1992-2.8789 3.8945-1.6992 6.0234l34.379 61.871c-6.5938 3.6406-12.367 8.6875-16.688 14.766-6.1211 8.5742-9.3633 18.676-9.3633 29.207v52c0 2.457 1.9883 4.4453 4.4453 4.4453h364.45c1.2773 0 2.4883-0.54688 3.3281-1.5039 0.84375-0.95703 1.2344-2.2266 1.0781-3.4883-1.1367-9.1641-2.5391-18.227-4.168-26.938zm-298.02 14.152c0.28125 0 0.54688-0.035156 0.82812-0.050781l4.957 8.9375h-22.207c1.8906-5.2812 6.8398-8.8906 12.512-8.8906zm99.145-200.22c1.832-0.58984 3.0742-2.2969 3.0742-4.2266v-29.738c7.418 1.8945 14.809 2.8945 22.043 2.8945 7.3789 0 14.891-1.0391 22.398-3.0039l0.003907 29.848c0 1.9297 1.2461 3.6367 3.0742 4.2266 1.6719 0.54297 3.4258 1.1484 5.207 1.7812-2.8242 14.527-15.391 25.105-30.504 25.105-14.883 0-27.68-10.785-30.512-25.102 1.793-0.63672 3.5469-1.2422 5.2148-1.7852zm131.8-111.12c4.7773-11.496 8.0547-25.57 8.8438-49.75 5.4297 4.6797 9.1016 13.492 9.1016 23.133 0 14.535-8.1992 26.734-17.945 26.617zm0.125-57.16c-0.35938 31.133-4.4219 45.863-10.414 58.406-2.9883 6.2383-6.4922 12.027-10.547 18.73-9.9297 16.406-33.07 38.102-60.426 46.965-16.949 5.5625-33.473 5.5938-50.539 0.12891-27.504-8.8906-50.73-30.645-60.676-47.098l-0.25391-0.42188c-3.957-6.5273-7.3672-12.168-10.191-18.234-5.8633-12.492-9.8398-27.215-10.203-58.543-0.039062-1.5977-0.039062-3.25-0.039062-4.9453 0-58.355 47.578-76.98 89.555-93.418 14.414-5.6445 28.133-11.012 39.359-17.668 8.2656 19.895 26.246 36.422 43.68 52.457 20.953 19.27 40.738 37.461 40.738 58.629 0 1.6953 0 3.3477-0.042969 5.0117zm-213.3 57.211c-9.6289-0.011719-17.762-12.219-17.762-26.668 0-9.6367 3.6719-18.453 9.0977-23.133 0.78516 24.289 3.9922 38.352 8.6641 49.801zm67.828 116.14c4.2422 17.613 20.27 30.703 38.852 30.703 18.871 0 34.637-12.844 38.859-30.68 2.8594 1.207 5.6055 2.457 8.2227 3.7383-5.8008 20.941-25.062 35.832-47.082 35.832-22.027 0-41.297-14.898-47.09-35.863 2.75-1.332 5.4922-2.5742 8.2383-3.7305zm154.41 168.48h46.309c0.66406 2.9102 1.293 5.8711 1.8945 8.8906h-48.203zm-215.01-171.73 88.832 156.52-98.672 49.332-5.6758-10.23c1.0977-0.69922 2.1484-1.4922 3.0898-2.4375 3.3633-3.3594 5.2148-7.8242 5.2148-12.562 0-3.6797-1.125-7.1016-3.0508-9.9414 2.4922-0.87109 4.8008-2.2305 6.7227-4.1602 3.3672-3.3633 5.2148-7.8281 5.2148-12.566 0-7.75-5.0195-14.289-11.949-16.715 1.9844-2.9219 3.0625-6.3516 3.0625-9.9531 0-9.8047-7.9727-17.777-17.777-17.777h-20.891c-5.4727 0-10.828 0.91406-16.004 2.6523l-32.637-58.73zm-87.211 159.73c0-8.6719 2.668-16.98 7.707-24.043 3.7695-5.293 8.8438-9.6992 14.625-12.684 0.90625-0.45312 1.7695-0.86719 2.6914-1.2656 5.1992-2.2148 10.684-3.332 16.301-3.332l20.898-0.003907c4.9023 0 8.8906 3.9883 8.8906 8.8906 0 2.3633-0.92578 4.5938-2.6094 6.2812-1.6875 1.6797-3.918 2.6016-6.2812 2.6016h-7.8203c-7.1992 0-14.406 1.6992-20.836 4.9102-2.1953 1.0977-3.0859 3.7695-1.9883 5.9648 1.1016 2.1953 3.7734 3.0742 5.9648 1.9883 5.1992-2.6016 11.027-3.9766 16.859-3.9766l7.8203-0.003907h8.8906c4.9023 0 8.8906 3.9883 8.8906 8.8906 0 2.3633-0.92578 4.5938-2.6094 6.2812-1.6875 1.6836-3.9219 2.6133-6.2852 2.6133h-22.223c-0.62109 0-1.207 0.12891-1.7461 0.35938-3.8633 0.73047-7.4883 2.5859-10.285 5.3867-1.7383 1.7383-1.7383 4.5469 0 6.2852 0.86719 0.86328 2.0039 1.3008 3.1445 1.3008 1.1367 0 2.2773-0.4375 3.1406-1.3008 1.9961-1.9961 4.7539-3.1406 7.5703-3.1406l11.512-0.003906c4.9023 0 8.8906 3.9883 8.8906 8.8906 0 2.3633-0.92578 4.5938-2.6094 6.2812-1.1836 1.1836-2.5508 1.9648-4.1484 2.3516-0.65625 0.16016-1.3906 0.25391-2.1328 0.25391h-3.9102c-10.188 0-19.051 6.9219-21.559 16.844l-0.23047 0.93359h-36.523zm302.22 47.555v-17.777h49.91c1.0352 5.8164 1.9922 11.75 2.8047 17.777z"/>
  <use x="158.890625" y="626.667969" xlink:href="#v"/>
  <use x="175.199219" y="626.667969" xlink:href="#d"/>
  <use x="186.15625" y="626.667969" xlink:href="#b"/>
  <use x="201.226562" y="626.667969" xlink:href="#l"/>
  <use x="216.222656" y="626.667969" xlink:href="#a"/>
  <use x="226.847656" y="626.667969" xlink:href="#b"/>
  <use x="241.917969" y="626.667969" xlink:href="#f"/>
  <use x="265.5625" y="626.667969" xlink:href="#k"/>
  <use x="281.46875" y="626.667969" xlink:href="#e"/>
  <use x="303.691406" y="626.667969" xlink:href="#j"/>
  <use x="320.890625" y="626.667969" xlink:href="#i"/>
  <use x="344.046875" y="626.667969" xlink:href="#b"/>
  <use x="359.117188" y="626.667969" xlink:href="#a"/>
  <use x="369.738281" y="626.667969" xlink:href="#h"/>
  <use x="385.558594" y="626.667969" xlink:href="#e"/>
  <use x="400.046875" y="626.667969" xlink:href="#u"/>
  <use x="413.273438" y="626.667969" xlink:href="#a"/>
  <use x="431.632812" y="626.667969" xlink:href="#t"/>
  <use x="447.636719" y="626.667969" xlink:href="#a"/>
  <use x="458.257812" y="626.667969" xlink:href="#g"/>
  <use x="474.078125" y="626.667969" xlink:href="#f"/>
  <use x="489.988281" y="626.667969" xlink:href="#s"/>
  <use x="497.605469" y="626.667969" xlink:href="#c"/>
  <use x="158.890625" y="648.890625" xlink:href="#r"/>
  <use x="168.558594" y="648.890625" xlink:href="#d"/>
  <use x="179.515625" y="648.890625" xlink:href="#c"/>
  <use x="194.78125" y="648.890625" xlink:href="#i"/>
  <use x="225.675781" y="648.890625" xlink:href="#a"/>
  <use x="236.296875" y="648.890625" xlink:href="#h"/>
  <use x="252.117188" y="648.890625" xlink:href="#b"/>
  <use x="274.925781" y="648.890625" xlink:href="#q"/>
  <use x="293.523437" y="648.890625" xlink:href="#c"/>
  <use x="308.792969" y="648.890625" xlink:href="#g"/>
  <use x="324.613281" y="648.890625" xlink:href="#p"/>
  <use x="348.167969" y="648.890625" xlink:href="#o"/>
  <use x="364.457031" y="648.890625" xlink:href="#d"/>
  <use x="375.414062" y="648.890625" xlink:href="#c"/>
  <use x="390.679688" y="648.890625" xlink:href="#n"/>
  <use x="398.296875" y="648.890625" xlink:href="#b"/>
  <use x="413.371094" y="648.890625" xlink:href="#m"/>
  <use x="426.542969" y="648.890625" xlink:href="#a"/>
 </g>
</svg>
