<?xml version="1.0" encoding="utf-8"?>
<!-- Generator: Adobe Illustrator 21.0.0, SVG Export Plug-In . SVG Version: 6.00 Build 0)  -->
<svg version="1.1" id="Camada_1" xmlns="http://www.w3.org/2000/svg" xmlns:xlink="http://www.w3.org/1999/xlink" x="0px" y="0px"
	 viewBox="0 0 700 700" style="enable-background:new 0 0 700 700;" xml:space="preserve">
<g>
	<path d="M381,0c-3.9,0.7-6.7,4.2-6.6,8.1v42.5c-12.7,3-26.1,6.8-38.7,13L307,34.9c-1.5-1.6-3.6-2.5-5.9-2.5c-2.2,0-4.3,0.9-5.8,2.5
		l-57,57v0c-3,3-3.2,7.7-0.5,10.9l29.8,37.1c-5.5,10.1-9.4,20-12.5,31h-43.5v0c-4.5,0-8.1,3.6-8.1,8.1v81.4c0,4.5,3.6,8.1,8.1,8.1
		h42.5c3,12.5,7.1,26,13.2,38.4l-29,29h0c-3.1,3.2-3.1,8.3,0,11.4l57,57c1.5,1.6,3.6,2.5,5.8,2.5c2.2,0,4.3-0.9,5.9-2.5l28.7-28.7
		c12.5,6.2,26,10.2,38.7,13.2v42.5c0,4.5,3.6,8.1,8.1,8.1H464c4.5,0,8.1-3.6,8.1-8.1v-42.5c12.7-3,26.1-7,38.7-13.2l28.7,28.7
		c1.5,1.6,3.6,2.5,5.8,2.5c2.2,0,4.3-0.9,5.9-2.5l57-57c3.1-3.2,3.1-8.3,0-11.4l-29-29c6.1-12.4,10.2-25.9,13.2-38.4h42.5h0
		c4.5,0,8.1-3.6,8.1-8.1v-81.4c0-4.5-3.6-8.1-8.1-8.1h-43.5c-3.1-11.1-7-21-12.5-31l29.8-37.1v0c2.7-3.2,2.5-8-0.5-10.9l-57-57v0
		c-1.5-1.6-3.6-2.5-5.9-2.5c-2.2,0-4.3,0.9-5.8,2.5l-28.7,28.7c-12.5-6.2-26-9.9-38.7-13V8.2c0-4.5-3.6-8.1-8.1-8.1h-81.4
		C382.1,0,381.6,0,381,0L381,0z M390.7,16.3h65.1V57l0,0c0,3.7,2.5,7,6.1,7.9c16.4,4.1,34.7,8,46.8,15.3c3.2,1.9,7.3,1.4,9.9-1.3
		l26.7-26.7l46,46l-28,35.1v0c-2,2.7-2.2,6.3-0.5,9.2c8,13.3,11.3,22.6,15.3,38.4v0c0.8,3.7,4.1,6.3,7.9,6.4h40.7v65.1h-40.7
		c-3.7,0-7,2.5-7.9,6.1c-4.1,16.4-8,34.5-15.3,46.5c-2,3.2-1.5,7.2,1,9.9l26.7,27l-45.3,45.3l-26.7-26.7h0c-2.6-2.6-6.7-3.2-9.9-1.3
		c-12.1,7.3-30.4,11.4-46.8,15.5c-3.6,0.9-6.1,4.2-6.1,7.9v40.7h-65.1v-40.7h0c0-3.7-2.5-7-6.1-7.9c-16.4-4.1-34.7-8.3-46.8-15.5
		c-3.2-1.9-7.3-1.4-9.9,1.3l-26.7,26.7l-45.3-45.3l26.7-27c2.6-2.7,3-6.8,1-9.9c-7.3-12.1-11.2-30.2-15.3-46.5
		c-0.9-3.6-4.2-6.1-7.9-6.1h-40.7v-65.1h40.7c3.8,0,7.1-2.7,7.9-6.4c3.9-15.8,7.3-25.1,15.3-38.4v0c1.7-2.9,1.5-6.5-0.5-9.2
		l-28-35.1l46-46l26.7,26.7l0,0c2.6,2.6,6.7,3.2,9.9,1.3c12.1-7.3,30.4-11.2,46.8-15.3c3.6-0.9,6.1-4.2,6.1-7.9L390.7,16.3
		L390.7,16.3z M423.3,130.3c-49.4,0-89.5,40.2-89.5,89.5s40.2,89.5,89.5,89.5c49.4,0,89.5-40.2,89.5-89.5S472.6,130.3,423.3,130.3
		L423.3,130.3z M423.3,146.5c40.6,0,73.3,32.7,73.3,73.3c0,40.5-32.7,73.3-73.3,73.3c-40.6,0-73.3-32.7-73.3-73.3
		C350,179.2,382.7,146.5,423.3,146.5z M6.6,382.6c-3.9,0.7-6.7,4.2-6.6,8.1v227.9c0,4.5,3.6,8.1,8.1,8.1H114c4.5,0,8.1-3.6,8.1-8.1
		v-1C187.3,662.2,233.8,700,350,700c63.9,0,141.7-33.3,204.2-66.1c62.6-32.8,109.6-65.6,109.6-65.6c12.4-8.3,21.3-14.7,27.5-23.4
		c6.2-8.7,8.6-18.9,8.6-32.1c0-10.2-4.1-18.8-10.2-24.7c-6-5.9-13.7-9.4-21.1-11.7c-14.8-4.6-29.8-4.3-33.8-4.3
		c-17.6,0-38.1,8.7-55.2,17c-15.7,7.6-26,13.8-28,15c-4.2-22.7-23.2-40.2-47.1-40.2H353.1c-22.4-20.8-55.9-32.7-96.1-39.7
		c-39.6-6.9-85.9-9-134.8-9.2v-24.4v0c0-4.5-3.6-8.1-8.1-8.1H8.1C7.6,382.5,7.1,382.5,6.6,382.6L6.6,382.6z M16.3,398.9h89.5v23.7
		c0,0.2,0,0.5,0,0.8v179.1c0,0.3,0,0.7,0,1v7.1H16.3L16.3,398.9z M122.1,431.7c48.3,0.2,94,2,132,8.6c40.2,7,71.7,19,90,37.4l0,0
		c1.5,1.6,3.6,2.5,5.8,2.5h154.7c18.2,0,32.6,14.4,32.6,32.6c0,18.2-14.4,32.6-32.6,32.6h-236c-2.2,0-4.3,0.8-5.8,2.3
		c-1.6,1.5-2.4,3.6-2.4,5.8c0,2.2,0.9,4.3,2.4,5.8c1.6,1.5,3.7,2.4,5.8,2.3h236c24.1,0,43.4-18,47.3-40.9v0c2,0.4,4.1,0.1,5.9-1
		c0,0,12.7-8.1,29-16c16.3-7.9,36.5-15.3,48.1-15.3c4.1,0,17.6,0,29.3,3.6c5.8,1.8,10.9,4.6,14.2,7.9c3.4,3.3,5.3,6.9,5.3,13
		c0,11.3-1.6,17.1-5.6,22.6c-4,5.6-11.4,11.3-23.4,19.3c0,0-46.5,32.3-108.1,64.6C485,651.7,408.2,683.7,350,683.7
		c-118.1,0-156.6-37.7-227.9-85.7L122.1,431.7z"/>
</g>
</svg>
