<?xml version="1.0" encoding="utf-8"?>
<!-- Generator: Adobe Illustrator 21.0.0, SVG Export Plug-In . SVG Version: 6.00 Build 0)  -->
<svg version="1.1" id="Camada_1" xmlns="http://www.w3.org/2000/svg" xmlns:xlink="http://www.w3.org/1999/xlink" x="0px" y="0px"
	 viewBox="0 0 700 700" style="enable-background:new 0 0 700 700;" xml:space="preserve">
<g>
	<path d="M249.2,260.4l51.6-14.7c10.3,6.6,21.4,12.5,33.2,14.7c62.7,14,118.7-31,122.4-90.7c0-2.9-2.2-5.9-5.2-5.9h-88.5
		c-2.9,0-5.2-2.2-5.2-5.2V70.2c0-2.9-2.9-5.9-5.9-5.2C292,67.9,247,124,261,187.4c1.5,5.9,3.7,11.8,5.9,17l-25.8,45
		C238.2,255.2,243.3,261.9,249.2,260.4L249.2,260.4z"/>
	<path d="M387.9,139.5h88.5c2.9,0,5.9-2.9,5.2-5.9c-2.9-50.1-42.8-90.7-92.9-92.9c-2.9,0-5.9,2.2-5.9,5.2v88.5
		C382,137.3,384.9,139.5,387.9,139.5L387.9,139.5z"/>
	<path d="M170.3,194c0,31.8-25.7,57.5-57.5,57.5S55.3,225.8,55.3,194s25.7-57.5,57.5-57.5S170.3,162.3,170.3,194"/>
	<path d="M174,509.6H97.3c-19.9,0-36.1-14-39.8-33.9L34.7,329c-1.5-9.6-10.3-16.2-19.9-14.7C5.2,315.7-1.5,324.6,0,334.1l22.9,146.7
		c5.9,36.9,36.9,63.4,73.7,63.4h76.7c9.6,0,17.7-8.1,17.7-17.7C191,517.7,183.6,509.6,174,509.6L174,509.6z"/>
	<path d="M229.3,435.9h-53.1l-6.6-92.9c19.2,11.1,39.8,17.7,61.9,17.7h47.9c11.8,0,22.1-9.6,22.1-22.1c0-11.8-9.6-22.1-22.1-22.1
		h-47.2c-14.7,0-30.2-4.4-42.8-12.5l-43.5-28c-8.1-5.9-17.7-8.8-28.8-8.8h-8.1c-15.5,0-29.5,6.6-39.8,18.4s-14.7,26.5-12.5,42
		l21.4,139.4C80.4,479.4,91.4,489,104,489h95.1c4.4,0,8.1,2.9,8.8,7.4L233,634.3c2.2,12.5,13.3,21.4,25.8,21.4c1.5,0,2.9,0,4.4-0.7
		c14-2.2,23.6-16.2,21.4-30.2l-30.2-167.4C252.9,444.8,242.6,435.9,229.3,435.9L229.3,435.9z"/>
	<path d="M645.2,194c0,31.8-25.7,57.5-57.5,57.5c-31.8,0-57.5-25.7-57.5-57.5s25.7-57.5,57.5-57.5
		C619.5,136.5,645.2,162.3,645.2,194"/>
	<path d="M685.8,314.2c-9.6-1.5-18.4,5.2-19.9,14.7L643,475.7c-2.9,19.9-19.9,33.9-39.8,33.9l-76.7,0c-9.6,0-17.7,8.1-17.7,17.7
		c0,9.6,8.1,17.7,17.7,17.7h76.7c36.9,0,68.6-26.5,73.7-63.4l22.9-146.7C702,324.6,695.3,315.7,685.8,314.2L685.8,314.2z"/>
	<path d="M595.8,488.3c13.3,0,23.6-9.6,25.8-22.1L643,326.8c2.2-14.7-2.2-30.2-12.5-42c-10.3-11.8-24.3-18.4-39.8-18.4h-8.1
		c-10.3,0-20.6,3.7-28.8,8.8l-43.5,28.8c-12.5,8.1-27.3,12.5-42.8,12.5h-47.9c-11.8,0-22.1,9.6-22.1,22.1c0,11.8,9.6,22.1,22.1,22.1
		h48.7c22.1,0,43.5-5.9,61.9-17.7l-6.6,92.9h-53.1c-12.5,0-23.6,8.8-25.8,21.4l-30.2,167.4c-2.2,14,6.6,28,21.4,30.2
		c1.5,0,2.9,0.7,4.4,0.7c12.5,0,23.6-8.8,25.8-21.4l25.1-137.9c0.7-4.4,4.4-7.4,8.8-7.4L595.8,488.3z"/>
	<path d="M496.3,399c0-9.6-8.1-17.7-17.7-17.7H222c-9.6,0-17.7,8.1-17.7,17.7s8.1,17.7,17.7,17.7h111.3v224.9
		c0,9.6,8.1,17.7,17.7,17.7s17.7-8.1,17.7-17.7V416H480C488.1,416,496.3,408.6,496.3,399L496.3,399z"/>
</g>
</svg>
