<?xml version="1.0" encoding="utf-8"?>
<!-- Generator: Adobe Illustrator 21.0.0, SVG Export Plug-In . SVG Version: 6.00 Build 0)  -->
<svg version="1.1" id="Camada_1" xmlns="http://www.w3.org/2000/svg" xmlns:xlink="http://www.w3.org/1999/xlink" x="0px" y="0px"
	 viewBox="0 0 700 700" style="enable-background:new 0 0 700 700;" xml:space="preserve">
<g>
	<path d="M691.5,421.9c-0.2-11.5-4.9-22.6-13.1-30.7c-8.2-8.1-19.3-12.6-30.9-12.6c-1.2,0-2.4,0.1-3.6,0.2h0
		c-0.4-0.1-0.9-0.2-1.3-0.2h-40.2v-198c0-11.4-4.5-22.4-12.6-30.4c-8.1-8.1-19-12.6-30.4-12.6h-23c-4.7-19.7-16.3-37-32.6-49
		c-12.8-9.5-22.2-22.7-27-37.9l-2.5-7.8h0c-3.8-12.4-11.6-23.3-22-31C441.9,4.1,429.3-0.1,416.3,0H416c-16.1,0.1-31.6,6.5-42.9,17.9
		c-11.4,11.4-17.8,26.9-17.8,43c0,19.9-2.9,39.8-8.5,58.9l-5.3,17.7H293c-10.6,0-20.9,3.5-29.4,9.9c-8.5,6.4-14.6,15.3-17.6,25.5
		l-24.5,85.8l-15.3,5.3l-30.4-83.9v0c-3.3-9.1-9.4-17-17.3-22.6c-8-5.6-17.4-8.6-27.2-8.6H42.1c-7.4,0-13.4,6-13.5,13.5v5
		c0,7.3,2.9,14.3,8,19.4c5.1,5.1,12.1,8,19.4,8h31.6l34.8,98.5L9.5,333c-2.9,1-4.5,4.1-3.6,7l34.6,121.1
		c-22.8,22.1-34.8,47.1-34.8,72.4c0,33.2,19.8,64.6,57.4,91v12.3c0,9.5,7.7,17.2,17.2,17.2H118c53.9,22.2,122,34.4,191.8,34.4
		c13.4,0,26.9-0.5,40.2-1.4V700h298.4v-18.1c13.8-6.1,25.5-16.2,33.7-29c8.2-12.7,12.4-27.6,12.2-42.7L691.5,421.9z M407,149.1
		c1.5,0,3-0.6,4.1-1.7c1.1-1.1,1.7-2.5,1.7-4.1v-17.6c1.7-0.2,3.4-0.6,5.1-1.1c1.3-0.4,2.5-0.8,3.7-1.3c3-1.2,4.4-4.5,3.3-7.4
		c-1.2-3-4.5-4.4-7.4-3.3c-0.9,0.3-1.8,0.6-2.7,0.9c-2.5,0.7-5.1,1.1-7.8,1.1c-9.5,0-17.2-7.7-17.2-17.2V62.2
		c5.2-0.9,10.2-2.7,14.8-5.3l14-7.8c0.6,7.6,3.4,14.9,8.1,21c1.9,2.5,5.5,3,8,1.1c2-1.5,4.4-2.3,6.8-2.3c3.1-0.1,6,1.1,8.2,3.3
		c2.2,2.2,3.4,5.1,3.4,8.2c0,3.1-1.3,6-3.5,8.1c-2.2,2.1-5.2,3.3-8.2,3.2c-3.2,0-5.7,2.6-5.7,5.7v45.9c0,1.5,0.6,3,1.7,4.1
		c1.1,1.1,2.5,1.7,4.1,1.7h34.2l-56.8,40.6c-7.2,5.1-16.3,6.7-24.8,4.2c-8.5-2.5-15.3-8.7-18.6-16.9l-11.1-27.8L407,149.1z
		 M97.2,187.3c-0.8-2.3-3-3.8-5.4-3.8H56.1c-8.8,0-16-7.2-16-16v-5c0-1.1,0.9-2,2-2h89.3c7.4,0,14.6,2.3,20.6,6.5
		c6,4.2,10.6,10.2,13.1,17.1l30.3,83.7l-62.2,21.8L97.2,187.3z M18.4,342.1l218.7-76.5l42.8,149.6L61.2,491.7L18.4,342.1z
		 M297.8,481.4l-2.2,11.2l-13-5.9L297.8,481.4z M267.5,479.8l-13.5-6.1l18.1-6.3l13.5,6.1L267.5,479.8z M287.7,461.9l14.9-5.2
		l-2.1,11L287.7,461.9z M272.6,455l-24.6-11.2v0c-2.9-1.3-6.3,0-7.6,2.8c-1.3,2.9,0,6.3,2.9,7.6l13.7,6.2l-18.1,6.3l-24.7-11.2v0
		c-2.9-1.3-6.3,0-7.6,2.9s0,6.3,2.8,7.6l13.7,6.2l-18.1,6.3l-24.6-11.2c-1.4-0.6-3-0.7-4.4-0.1c-1.4,0.5-2.6,1.6-3.2,3
		c-1.3,2.9,0,6.3,2.8,7.6l13.7,6.2l-18,6.3l-24.6-11.2v0c-1.4-0.7-3-0.7-4.4-0.2c-1.4,0.5-2.6,1.6-3.3,3c-0.6,1.4-0.7,3-0.1,4.4
		c0.6,1.4,1.7,2.6,3.1,3.2l13.7,6.2l-20.2,7.1c-1.5,0.5-2.7,1.5-3.3,2.9c-0.7,1.4-0.8,3-0.3,4.4c0.5,1.5,1.6,2.6,3,3.3
		c1.4,0.7,3,0.7,4.4,0.2l31.5-11l13.5,6.1l-20.2,7.1v0c-1.4,0.5-2.6,1.5-3.3,2.9c-0.7,1.4-0.8,3-0.3,4.4c0.5,1.4,1.6,2.6,2.9,3.3
		c1.4,0.7,3,0.7,4.4,0.2l31.5-11l27.4,12.5c1.4,0.6,3,0.7,4.4,0.2c1.4-0.5,2.6-1.6,3.2-3c0.6-1.4,0.7-3,0.1-4.4
		c-0.5-1.4-1.6-2.6-3-3.2l-16.5-7.5l18-6.3l27.4,12.5l0,0c2.9,1.3,6.3,0,7.6-2.9s0-6.3-2.8-7.6l-16.5-7.5l18.1-6.3l26.5,12l-1.6,8.4
		l-107.9,37.8L72.7,499.8L286.6,425l20.3,9.2l-1.8,9.6l0,0c-0.3,0-0.6,0.1-0.9,0.2L272.6,455z M251.8,485.3l-18.1,6.3l-13.5-6.1
		l18.1-6.3L251.8,485.3z M218.1,497.1l-18,6.3l-13.5-6.1l18-6.3L218.1,497.1z M284.5,550.2l-2.3,12h-32L284.5,550.2z M291.7,414.7
		l-6.9-24c8.5-0.4,17-0.6,25.6-0.5l0,0c1.7,1.9,3.9,3.3,6.4,4l9,2.4v0c-7.5,7.3-13.1,16.3-16.2,26.3L291.7,414.7z M281.6,379.3
		l-3.5-12.3c5.6-5.1,10.5-10.9,14.6-17.3v29.2C288.9,379,285.2,379.1,281.6,379.3L281.6,379.3z M292.6,321.1
		c-3.1,12.5-9.4,23.9-18.2,33.3l-14-48.9l32.1,13.8V321.1z M63.1,579.5v30.8c-30.1-23.1-45.9-49.4-45.9-76.8
		c0-20.6,9.3-41.1,27-59.8l7.5,26.1v22.2c0,2.2,1.3,4.3,3.4,5.2l40.6,18.4c-0.3,0.4-0.6,0.7-0.8,1.1h0c-2.9,4.6-3.2,10.5-0.8,15.4
		H80.3C70.8,562.3,63.1,570,63.1,579.5L63.1,579.5z M80.3,642.6c-3.2,0-5.7-2.6-5.7-5.7v-57.4c0-3.2,2.6-5.7,5.7-5.7h23
		c2,0,3.8-1,4.9-2.7c1-1.7,1.1-3.8,0.3-5.6l-4.1-8.1c-0.7-1.4-0.6-3,0.2-4.4c0.8-1.3,2.3-2.1,3.8-2.1h2.8l9.9,19.8
		c1,1.9,3,3.2,5.1,3.2h28.7v68.9L80.3,642.6z M350,675.7c-13.3,0.9-26.8,1.4-40.2,1.4c-56.2,0-111.2-8.1-158.2-23h156
		c15.6,0,30.7-5.8,42.3-16.3L350,675.7z M392,477.2l-28,156.2c-0.5,2.7-2.9,4.7-5.6,4.7c-0.3,0-0.7,0-1-0.1
		c-1.5-0.3-2.8-1.1-3.7-2.4c-0.9-1.3-1.2-2.8-0.9-4.3l28-156.2c0.6-3.1,3.6-5.1,6.7-4.6C390.5,471.1,392.6,474.1,392,477.2
		L392,477.2z M477.9,378.6H369.7c-11.5,0-22.7,3.1-32.5,9.1l-17.5-4.7v0c-0.7-0.2-1.2-0.9-1-1.7l12.1-57.4c0.1-0.4,0.3-0.7,0.6-0.9
		c0.3-0.2,0.7-0.3,1.1-0.2l27.3,6.4c2.1,0.5,4.3-0.2,5.7-1.9c1.4-1.7,1.7-4,0.9-6l-4-9.2c-1.1-2.6-0.4-5.5,1.8-7.3l1.2-0.9
		l19.6,30.8h0c0.8,1.3,2.1,2.2,3.6,2.5l66.3,14.9c0.1,0,0.3,0,0.4,0.1v0c5.3,7.7,13.4,12.9,22.6,14.5L477.9,378.6z M512.3,378.6h-23
		v-17.2c0-1.5-0.6-3-1.7-4.1c-1.1-1.1-2.5-1.7-4.1-1.7c-6.1,0-11.9-2.4-16.2-6.7c-4.3-4.3-6.7-10.1-6.7-16.2v-28.9
		c2.4-0.2,4.8-0.7,7.1-1.5c3.3-1.1,6.3-2.8,9-4.9l6.8-5.2v12.6h0c0,1.8,0.8,3.5,2.2,4.5s3.2,1.5,5,1c0.9-0.2,1.8-0.4,2.8-0.4
		c6.1,0,11.1,4.8,11.4,10.9c0.3,6.1-4.3,11.3-10.4,11.8c-2.1,0.2-3.9,1.5-4.8,3.4c-0.9,1.9-0.6,4.1,0.6,5.8
		c5.3,7.1,13.1,11.9,21.9,13.4L512.3,378.6z M591,378.6h-67.3V351l6.8-18.1c0-0.1,0-0.1,0.1-0.2H591L591,378.6z M591,321.2h-56.6
		c4.4-14.9,6.6-30.4,6.6-45.9c0-9.1-3.6-17.9-10.1-24.3c-0.9-0.9-1.9-1.8-3-2.6v-36.1c0-3.2-2.6-5.7-5.7-5.7s-5.7,2.6-5.7,5.7v30.1
		c-3.2-1-6.5-1.4-9.9-1.4h-48.6c-8.4,0-16.5,3.4-22.4,9.3c-6,5.9-9.3,14-9.3,22.4c0,6.9,2.3,13.5,6.4,19c4.1,5.5,10,9.4,16.6,11.3
		v29.9c0,2.2,0.2,4.4,0.6,6.5l-56.5-12.7l-21.7-34.2c-0.9-1.4-2.3-2.3-3.9-2.6c-1.6-0.3-3.2,0.1-4.5,1.2l-6.2,4.9
		c-5.9,4.7-8.2,12.5-5.7,19.6l-16.3-3.8c-3.4-0.8-6.9-0.2-9.9,1.7c-2.9,1.9-5,4.8-5.7,8.2l-12,57.1c-1.1,0-2.3,0-3.4,0v-86.1
		c0-1.1-0.3-2.1-0.9-3c-7.8-12.6-11.6-27.2-11-42c0.6-14.8,5.6-29.1,14.3-41l1.8-2.4c1.8-2.6,1.3-6.1-1.3-8c-2.5-1.9-6.1-1.3-8,1.2
		l-1.8,2.4c-9.9,13.6-15.6,29.7-16.5,46.5c-0.8,16.8,3.3,33.4,11.8,47.9v12.7l-36.2-15.5l-9.9-34.8c-0.4-1.5-1.5-2.8-2.9-3.5
		c-1.4-0.7-3-0.8-4.5-0.3l-4.2,1.5l22.3-78.1c2.3-7.8,7-14.6,13.4-19.5c6.5-4.9,14.3-7.5,22.4-7.6h58.9l12.8,32.1h0
		c4.6,11.5,14.2,20.2,26.1,23.7c11.9,3.5,24.7,1.3,34.7-5.9l69.9-49.9h64.2c8.4,0,16.4,3.3,22.3,9.3c5.9,5.9,9.2,13.9,9.3,22.3
		L591,321.2z M648.4,659.8c0,3.2-2.6,5.7-5.7,5.7c-3.2,0-5.7-2.6-5.7-5.7V476.2c0-3.2,2.6-5.7,5.7-5.7c3.2,0,5.7,2.6,5.7,5.7V659.8z
		"/>
	<path d="M70.1,474.5c1.4,0.7,3,0.8,4.5,0.3l186.2-65.2h0c2.9-1,4.5-4.1,3.6-7l-33.3-116.5c-0.4-1.5-1.5-2.8-2.9-3.5
		c-1.4-0.7-3-0.8-4.5-0.3L37.5,347.6c-2.9,1-4.5,4.1-3.6,7L67.2,471C67.6,472.5,68.7,473.8,70.1,474.5L70.1,474.5z M78.5,432.1
		l7.7-29.8c0.4-1.7,1.6-3.1,3.2-3.8c1.6-0.7,3.4-0.7,5,0.1l26.3,13.3l6.3-62.6c0.2-2.2,1.7-4.1,3.8-4.8c2.1-0.7,4.4-0.2,6,1.4
		l44.5,44.8l19.4-54.4l-4.2,1.5c-1.4,0.5-3,0.4-4.4-0.2c-1.4-0.7-2.4-1.8-2.9-3.3c-0.5-1.5-0.4-3,0.3-4.4c0.7-1.4,1.9-2.4,3.3-2.9
		l15.5-5.4c2.6-0.9,5.4,0.1,6.8,2.4l8.3,13.6c1.6,2.7,0.8,6.2-1.9,7.9c-2.7,1.6-6.2,0.8-7.9-1.9l-2.1-3.4l-22.5,63
		c-0.7,1.9-2.2,3.2-4.2,3.7s-3.9-0.2-5.3-1.6l-42.4-42.7l-5.9,58.8c-0.2,1.9-1.3,3.6-3,4.5c-1.7,0.9-3.7,0.9-5.3,0.1l-27.4-13.9
		L89.6,435v0c-0.7,2.5-2.9,4.3-5.6,4.3c-0.5,0-1-0.1-1.4-0.2c-1.5-0.4-2.7-1.3-3.5-2.6C78.3,435.1,78.1,433.6,78.5,432.1L78.5,432.1
		z"/>
</g>
</svg>
