<?xml version="1.0" encoding="utf-8"?>
<!-- Generator: Adobe Illustrator 21.0.0, SVG Export Plug-In . SVG Version: 6.00 Build 0)  -->
<svg version="1.1" id="Camada_1" xmlns="http://www.w3.org/2000/svg" xmlns:xlink="http://www.w3.org/1999/xlink" x="0px" y="0px"
	 viewBox="0 0 700 700" style="enable-background:new 0 0 700 700;" xml:space="preserve">
<g>
	<path d="M627.1,364.6H73.4c-40.8,0-72.9-32.1-72.9-72.9c0-40.8,32.1-72.9,72.9-72.9c0-56.8,45.2-102,102-102c4.4,0,10.2,0,14.6,1.5
		c7.3-67,62.7-118,131.2-118c65.6,0,119.5,48.1,129.7,110.8c14.6-5.8,29.1-8.7,45.2-8.7c64.1,0,116.6,52.5,116.6,116.6v1.5
		c4.4-1.5,10.2-1.5,14.6-1.5c40.8,0,72.9,32.1,72.9,72.9C700,332.5,667.9,364.6,627.1,364.6L627.1,364.6z M73.4,248
		c-24.8,0-43.7,18.9-43.7,43.7c0,24.8,18.9,43.7,43.7,43.7h553.8c24.8,0,43.7-18.9,43.7-43.7S651.9,248,627.1,248
		c-8.7,0-17.5,2.9-24.8,7.3c-4.4,2.9-11.7,2.9-16,0c-4.4-2.9-7.3-10.2-5.8-16c1.5-7.3,2.9-14.6,2.9-20.4c0-48.1-39.3-87.4-87.4-87.4
		c-17.5,0-35,5.8-49.5,16c-4.4,2.9-10.2,2.9-14.6,1.5c-5.8-2.9-8.7-8.7-8.7-14.6v-2.9c0-56.8-45.2-102-102-102s-102,45.2-102,102
		v2.9v1.5c0,4.4-1.5,10.2-5.8,13.1c-4.4,2.9-8.7,4.4-13.1,1.5c-8.7-2.9-16-4.4-24.8-4.4c-40.8,0-72.9,32.1-72.9,72.9
		c0,4.4,0,10.2,1.5,14.6c1.5,4.4,0,10.2-4.4,13.1s-8.7,4.4-14.6,2.9C80.7,248,76.3,248,73.4,248L73.4,248z"/>
	<path d="M350.2,539.4c-8.7,0-14.6-5.8-14.6-14.6V350c0-8.7,5.8-14.6,14.6-14.6c8.7,0,14.6,5.8,14.6,14.6v174.9
		C364.8,533.6,359,539.4,350.2,539.4L350.2,539.4z"/>
	<path d="M568.8,583.2c-32.1,0-59.7-26.2-59.7-58.3c0-32.1,26.2-58.3,59.7-58.3c32.1,0,59.7,26.2,59.7,58.3
		C628.6,556.9,600.9,583.2,568.8,583.2z M568.8,495.7c-16,0-30.6,13.1-30.6,29.1c0,16,13.1,29.1,30.6,29.1c16,0,30.6-13.1,30.6-29.1
		C599.4,508.8,584.9,495.7,568.8,495.7L568.8,495.7z"/>
	<path d="M663.6,699.7H474.1c-11.7,0-21.9-5.8-29.1-14.6c-7.3-8.7-8.7-20.4-7.3-30.6C452.3,594.8,506.2,554,567.4,554
		c62.7,0,116.6,42.3,129.7,100.6c2.9,10.2,0,21.9-7.3,30.6C685.4,693.9,673.8,699.7,663.6,699.7L663.6,699.7z M568.8,583.2
		c-49.5,0-90.4,32.1-102,78.7c0,2.9,0,4.4,1.5,5.8s4.4,2.9,5.8,2.9h188c2.9,0,4.4-1.5,5.8-2.9c1.5-1.5,1.5-2.9,1.5-5.8
		C659.2,615.2,618.4,583.2,568.8,583.2L568.8,583.2z"/>
	<path d="M131.7,583.2c-32.1,0-59.7-26.2-59.7-58.3c0-32.1,26.2-58.3,59.7-58.3c32.1,0,59.7,26.2,59.7,58.3
		C191.4,556.9,163.7,583.2,131.7,583.2L131.7,583.2z M131.7,495.7c-16,0-30.6,13.1-30.6,29.1c0,16,13.1,29.1,30.6,29.1
		c16,0,30.6-13.1,30.6-29.1C162.3,508.8,147.7,495.7,131.7,495.7z"/>
	<path d="M226.4,699.7H36.9c-11.7,0-21.9-5.8-29.1-14.6c-7.3-8.7-8.7-20.4-7.3-30.6C15.1,596.3,69,554,131.7,554
		s116.6,42.3,129.7,100.6c2.9,10.2,0,21.9-7.3,30.6C248.2,693.9,236.6,699.7,226.4,699.7L226.4,699.7z M131.7,583.2
		c-49.5,0-90.4,32.1-102,78.7c0,2.9,0,4.4,1.5,5.8c1.5,1.5,4.4,2.9,5.8,2.9h188c2.9,0,4.4-1.5,5.8-2.9c1.5-1.5,1.5-2.9,1.5-5.8
		C222,615.2,181.2,583.2,131.7,583.2L131.7,583.2z"/>
	<path d="M437.7,539.4H262.8c-8.7,0-14.6-5.8-14.6-14.6c0-8.7,5.8-14.6,14.6-14.6h174.9c8.7,0,14.6,5.8,14.6,14.6
		C452.3,533.6,446.4,539.4,437.7,539.4L437.7,539.4z"/>
</g>
</svg>
