<?xml version="1.0" encoding="utf-8"?>
<!-- Generator: Adobe Illustrator 21.0.0, SVG Export Plug-In . SVG Version: 6.00 Build 0)  -->
<svg version="1.1" id="Camada_1" xmlns="http://www.w3.org/2000/svg" xmlns:xlink="http://www.w3.org/1999/xlink" x="0px" y="0px"
	 viewBox="0 0 1600 1600" style="enable-background:new 0 0 1600 1600;" xml:space="preserve">
<g>
	<path d="M531.7,363.9c-52.2,0-103.4,1.3-154.4-0.6c-23.9-0.9-36.5,3.8-46.8,28.7c-23.1,55.7-86.1,82.5-143.9,66.8
		c-57-15.4-96.4-68.9-93.2-126.7c3.3-59.5,48.4-110.2,105.5-118.3c61.9-8.8,118.9,25.2,138.3,83.7c3.8,11.6,8.9,15,20.9,14.9
		c63.7-0.7,127.4-0.3,191.1-0.3c27.3,0,35,7.5,35,34.7c0.1,107.8,0,215.7,0,323.5c0,5.4,0,10.9,0,18.2c4.9-2.2,8.4-3.4,11.6-5.3
		c55.6-32.9,111.1-66.1,167-98.7c8.5-5,11.5-10.4,11.5-20.2c-0.3-100.8-0.4-201.7,0-302.5c0-10.3-3.1-14.5-12.9-17.7
		c-59.4-19.6-93.7-75.4-85.2-137.2c8-58.2,58-104.2,116.6-107c61.1-3,114,36.3,129,95.8c15.8,62.6-19.8,127.4-82.3,148
		c-10.5,3.5-13.8,7.9-13.7,18.7c0.4,100.8,0.1,201.7,0.5,302.5c0,5.5,2.7,13.6,6.9,16.1c59.5,36.1,119.5,71.5,182.7,108.9
		c0-7.6,0-12.7,0-17.7c0-107.3,0-214.7,0-322c0-32.2,6.2-38.3,38.9-38.3c62.7,0,125.4-0.3,188.1,0.3c11.5,0.1,16.1-3.4,19.8-14.4
		c20.3-61.4,83.7-97.1,145.3-82.8c63.1,14.6,106.4,74.7,97.9,135.9c-9.3,67.1-63.4,114.1-129.1,112c-52.6-1.6-97.8-36.4-115.8-88.2
		c-1.5-4.4-6.7-7.8-10.8-10.9c-1.6-1.2-4.9-0.2-7.4-0.2c-57.6,0-115.3,0-175.3,0c0,5.5,0,10.3,0,15c0,109.4,0.2,218.7-0.3,328.1
		c0,10.4,3.4,16,12.2,21.1c52.8,30.8,105.1,62.5,158.1,93c16.3,9.3,23,21,23,39.9c-0.5,148.5-0.5,297,0,445.4
		c0.1,18.7-6.4,30.4-22.8,40c-139.1,81.7-277.9,164.1-416.5,246.6c-13.9,8.3-25.8,9.7-40.4,1c-139.9-83.4-280-166.4-420.4-249
		c-14.8-8.7-20.7-19.7-20.7-36.6c0.4-149.5,0.4-299-0.1-448.4c-0.1-18.4,6.9-29.6,22.6-38.6c53.4-30.8,106.2-62.6,159.3-93.9
		c6.7-4,11.4-7.6,11.3-17.1c-0.4-112.9-0.3-225.7-0.3-338.6C532.4,370,532.1,368,531.7,363.9z M584.1,848.3
		c0,29.6-0.6,59.2,0.5,88.8c0.2,6,4.9,14.2,9.9,17.3c64.7,39.1,130,77.4,194.9,116.2c7.2,4.3,12.8,5,20.5,0.4
		c65.3-39.1,131-77.6,196.2-117c4.7-2.9,9.2-10.7,9.2-16.3c0.7-58.7,0.2-117.3,0.6-176c0.1-8.8-3.1-13.6-10.3-17.8
		c-65.6-38.6-131-77.6-196.8-115.9c-4.4-2.6-12.8-2.8-17.1-0.3c-66.2,38.6-132,77.9-198.1,116.7c-7.6,4.5-9.8,9.8-9.7,18.1
		C584.4,791.2,584.1,819.8,584.1,848.3z M391.5,894.7c0,8.4,0,13.3,0,18.1c0,46.6,0.4,93.2-0.3,139.8c-0.2,12,3.5,18.7,13.9,24.9
		c118.3,69.5,236.2,139.5,354.3,209.4c4.1,2.4,8.4,4.5,14.5,7.8c0-7.2,0-12.1,0-17c0-47.1-0.5-94.2,0.3-141.3
		c0.2-11.8-4-17.7-13.8-23.4c-73.5-42.9-146.6-86.5-219.9-129.8C492,954.3,443.4,925.5,391.5,894.7z M826,1294.9
		c4.4-2.2,6.1-2.9,7.7-3.9c121.9-72.2,243.9-144.3,365.5-217c4.7-2.8,8.7-10.8,8.8-16.5c0.7-50.1,0.4-100.2,0.3-150.3
		c0-3.2-0.8-6.4-1.5-11.4c-34.6,20.4-67.7,40-100.7,59.6c-89.2,52.8-178.4,105.5-267.4,158.6c-5.3,3.1-12.1,9.5-12.2,14.5
		C825.6,1183.1,826,1237.7,826,1294.9z M392.7,1129.8c-0.7,5-1.1,6.8-1.1,8.7c-0.1,51.7-0.4,103.3,0.4,155
		c0.1,5.4,5.2,12.8,10.1,15.7c113.1,67.5,226.6,134.6,340,201.7c9.8,5.8,19.6,11.4,31,18c0.4-6.4,0.8-10.8,0.9-15.1
		c0.1-48.1-0.3-96.3,0.3-144.4c0.1-10.4-3.5-16.1-12.3-21.2c-90.3-53-180.3-106.5-270.4-159.8C459.2,1169.2,427,1150.1,392.7,1129.8
		z M1208.4,1130.7c-4.3,1.6-5.8,2-7,2.7c-122.5,72.5-245,144.9-367.2,217.8c-4.3,2.6-7.8,10.2-7.9,15.5
		c-0.6,50.1-0.4,100.3-0.3,150.5c0,3.3,0.7,6.5,1.2,11.2c3.4-1.6,5.6-2.5,7.7-3.7c121.6-72,243.2-143.9,364.5-216.4
		c4.7-2.8,8.6-10.9,8.6-16.6c0.7-47.6,0.4-95.3,0.4-142.9C1208.4,1143.5,1208.4,1138.1,1208.4,1130.7z M292.3,337.3
		c-0.2-40.9-32.6-73.1-73.6-73c-40.7,0-73.6,32.6-73.8,73.2c-0.2,40.6,34.2,74.9,74.7,74.3C260,411.1,292.5,377.9,292.3,337.3z
		 M1307.6,337.3c-0.2,40.6,32.3,73.8,72.7,74.4c40.5,0.6,75-33.7,74.7-74.3c-0.3-40.6-33.1-73.1-73.9-73.2
		C1340.1,264.3,1307.8,296.4,1307.6,337.3z M800.2,198.9c40.8-0.1,73.4-32.6,73.5-73.4c0.1-40.3-32.9-73.7-73.2-74.1
		c-40.8-0.3-74.6,33.7-74.2,74.5C726.6,166.8,759.3,199,800.2,198.9z M1068.2,917.8c39-23.1,76.1-45.1,115.1-68.2
		c-39.1-23.2-76.3-45.2-115.1-68.2C1068.2,827.4,1068.2,871.1,1068.2,917.8z M531.7,917.6c0-46.3,0-90,0-136.1
		c-38.8,22.9-76,45-115,68C455.7,872.7,492.8,894.6,531.7,917.6z"/>
</g>
</svg>
